<svg width="330" height="250" viewBox="0 0 330 250" fill="none" xmlns="http://www.w3.org/2000/svg">
<g clip-path="url(#clip0_1_38485)">
<path d="M132.15 51.8442H130.949V19.0059C130.949 16.51 130.457 14.0386 129.501 11.7327C128.544 9.42678 127.143 7.33158 125.376 5.56672C123.609 3.80185 121.511 2.40189 119.202 1.44675C116.893 0.491608 114.419 2.11472e-06 111.92 0H42.2602C37.2132 -9.60927e-06 32.3729 2.00238 28.8042 5.56668C25.2354 9.13097 23.2305 13.9652 23.2305 19.0059V199.159C23.2305 201.655 23.7227 204.127 24.679 206.433C25.6353 208.739 27.0371 210.834 28.8041 212.599C30.5712 214.364 32.669 215.764 34.9778 216.719C37.2866 217.674 39.7611 218.165 42.2601 218.165H111.92C116.967 218.165 121.807 216.163 125.376 212.599C128.944 209.034 130.949 204.2 130.949 199.16V75.2191H132.15V51.8442Z" fill="#3F3D56"/>
<path d="M154.477 218.197H0.90308C0.796176 218.197 0.693651 218.154 0.618059 218.079C0.542467 218.003 0.5 217.901 0.5 217.794C0.5 217.687 0.542467 217.585 0.618059 217.51C0.693651 217.434 0.796176 217.392 0.90308 217.392H154.477C154.583 217.392 154.686 217.434 154.762 217.51C154.837 217.585 154.88 217.687 154.88 217.794C154.88 217.901 154.837 218.003 154.762 218.079C154.686 218.154 154.583 218.197 154.477 218.197Z" fill="#CBCBCB"/>
<path d="M280.336 221.538C280.75 220.869 281.238 220.249 281.79 219.688C282.017 219.452 282.257 219.23 282.505 219.014C284.01 217.676 285.844 216.763 287.82 216.368C289.796 215.973 291.841 216.111 293.746 216.767C295.65 217.423 297.346 218.574 298.657 220.102C299.969 221.629 300.849 223.478 301.208 225.458C302.871 219.318 298.543 213.27 294.192 208.624C289.839 203.98 284.864 198.885 284.889 192.522C284.901 188.981 286.635 185.822 289.254 183.48C289.335 183.409 289.415 183.338 289.498 183.27C292.663 180.56 296.735 179.143 300.9 179.301C308.639 179.715 315.396 184.91 320.089 191.071C327.642 200.986 330.952 214.903 325.664 226.189C321.013 236.115 311.093 242.009 300.969 246.748C299.555 247.41 298.145 248.051 296.736 248.673C296.727 248.676 296.717 248.682 296.708 248.685C296.64 248.715 296.572 248.744 296.509 248.775C296.218 248.903 295.927 249.031 295.639 249.158L295.773 249.245L296.189 249.514C296.045 249.427 295.902 249.342 295.758 249.255C295.715 249.228 295.669 249.203 295.626 249.177C290.654 246.197 285.613 243.045 282.177 238.393C278.615 233.563 277.182 226.644 280.336 221.538Z" fill="#F1F1F1"/>
<path d="M313.511 210.32C314.612 212.822 315.342 215.47 315.677 218.182C315.942 220.601 315.842 223.045 315.383 225.434C314.395 230.343 312.242 234.944 309.104 238.849C306.736 241.813 304.003 244.467 300.969 246.747C299.555 247.409 298.145 248.051 296.736 248.673C296.727 248.675 296.717 248.682 296.708 248.684C296.64 248.714 296.572 248.744 296.509 248.775C296.218 248.903 295.927 249.031 295.639 249.157L295.773 249.244L296.189 249.513C296.045 249.426 295.902 249.341 295.757 249.254C295.715 249.228 295.669 249.203 295.626 249.176C296.721 245.354 296.881 241.324 296.095 237.427C295.309 233.529 293.6 229.876 291.109 226.774C288.605 223.712 285.412 221.283 281.79 219.688C282.017 219.452 282.257 219.23 282.504 219.014C283.9 219.654 285.236 220.415 286.496 221.29C291.006 224.403 294.392 228.883 296.154 234.068C297.726 238.771 297.923 243.825 296.72 248.637C296.969 248.474 297.22 248.306 297.464 248.14C302.096 245.02 306.365 241.273 309.581 236.678C312.354 232.795 314.129 228.29 314.749 223.56C315.365 218.394 314.071 213.313 311.761 208.703C309.211 203.771 305.997 199.211 302.21 195.148C298.405 190.974 294.104 187.28 289.401 184.149C289.295 184.078 289.221 183.968 289.193 183.844C289.166 183.719 289.188 183.589 289.254 183.48C289.304 183.38 289.392 183.305 289.498 183.269C289.552 183.256 289.608 183.254 289.662 183.265C289.717 183.276 289.768 183.299 289.812 183.333C290.393 183.72 290.968 184.11 291.537 184.512C296.273 187.861 300.573 191.785 304.341 196.193C307.981 200.442 311.294 205.163 313.511 210.32Z" fill="white"/>
<path d="M175.524 250H329.097C329.204 250 329.307 249.958 329.382 249.883C329.458 249.807 329.5 249.705 329.5 249.598C329.5 249.491 329.458 249.389 329.382 249.313C329.307 249.238 329.204 249.195 329.097 249.195H175.524C175.417 249.195 175.314 249.238 175.239 249.313C175.163 249.389 175.121 249.491 175.121 249.598C175.121 249.705 175.163 249.807 175.239 249.883C175.314 249.958 175.417 250 175.524 250Z" fill="#CBCBCB"/>
<path d="M212.459 217.878L205.012 217.762L205.908 243.11H212.457L212.459 217.878Z" fill="#FFB7B7"/>
<path d="M214.128 240.975L201.229 240.975H201.229C199.048 240.975 196.958 241.84 195.416 243.379C193.875 244.919 193.008 247.007 193.008 249.184V249.451L214.128 249.452L214.128 240.975Z" fill="#2F2E41"/>
<path d="M261.762 211.156L253.628 216.372L269.899 235.923L275.411 232.389L261.762 211.156Z" fill="#FFB7B7"/>
<path d="M275.662 229.689L264.807 236.649L264.807 236.65C262.972 237.826 261.681 239.682 261.216 241.81C260.752 243.937 261.153 246.162 262.331 247.994L262.475 248.218L280.247 236.823L275.662 229.689Z" fill="#2F2E41"/>
<path d="M196.146 150.452C194.753 150.838 193.266 150.701 191.968 150.066C190.669 149.431 189.649 148.342 189.101 147.006C188.552 145.67 188.513 144.179 188.992 142.817C189.47 141.454 190.433 140.314 191.696 139.613L204.232 125.408L214.835 127.696L199.922 142.285C200.289 143.06 200.481 143.907 200.484 144.764C200.488 145.622 200.303 146.47 199.943 147.249C199.583 148.027 199.057 148.718 198.401 149.271C197.745 149.825 196.975 150.228 196.146 150.452H196.146Z" fill="#FFB7B7"/>
<path d="M173.035 124.481C175.469 124.481 177.443 122.511 177.443 120.08C177.443 117.648 175.469 115.678 173.035 115.678C170.601 115.678 168.628 117.648 168.628 120.08C168.628 122.511 170.601 124.481 173.035 124.481Z" fill="#F1F1F1"/>
<path d="M302.021 112.403C304.455 112.403 306.428 110.432 306.428 108.001C306.428 105.57 304.455 103.6 302.021 103.6C299.587 103.6 297.613 105.57 297.613 108.001C297.613 110.432 299.587 112.403 302.021 112.403Z" fill="#F1F1F1"/>
<path d="M112.687 4.94434H103.594C104.012 5.96824 104.172 7.07914 104.059 8.17917C103.946 9.27921 103.564 10.3346 102.946 11.2524C102.329 12.1702 101.495 12.9222 100.518 13.4422C99.5404 13.9622 98.4502 14.2343 97.343 14.2344H57.436C56.3288 14.2343 55.2387 13.9622 54.2615 13.4422C53.2844 12.9222 52.4503 12.1702 51.8327 11.2524C51.2152 10.3346 50.8331 9.27921 50.7201 8.17918C50.6071 7.07915 50.7667 5.96824 51.1849 4.94434H42.6921C40.8259 4.94433 38.9779 5.31146 37.2538 6.02474C35.5296 6.73803 33.9629 7.7835 32.6433 9.10148C31.3237 10.4195 30.2769 11.9841 29.5627 13.7062C28.8485 15.4282 28.481 17.2738 28.481 19.1377V199.027C28.481 200.891 28.8485 202.736 29.5627 204.459C30.2769 206.181 31.3237 207.745 32.6433 209.063C33.9629 210.381 35.5296 211.427 37.2537 212.14C38.9779 212.853 40.8259 213.22 42.6921 213.22H112.687C114.553 213.22 116.401 212.853 118.125 212.14C119.85 211.427 121.416 210.381 122.736 209.063C124.055 207.745 125.102 206.181 125.816 204.459C126.531 202.737 126.898 200.891 126.898 199.027V19.1377C126.898 17.2738 126.531 15.4282 125.816 13.7062C125.102 11.9841 124.055 10.4195 122.736 9.10148C121.416 7.7835 119.85 6.73803 118.125 6.02474C116.401 5.31146 114.553 4.94433 112.687 4.94434Z" fill="white"/>
<path d="M77.6899 139.163C96.4889 139.163 111.729 123.942 111.729 105.167C111.729 86.3915 96.4889 71.1709 77.6899 71.1709C58.891 71.1709 43.6514 86.3915 43.6514 105.167C43.6514 123.942 58.891 139.163 77.6899 139.163Z" fill="#335EF7"/>
<path d="M74.3166 118.135C73.5508 118.136 72.8054 117.889 72.1927 117.43L72.1547 117.402L64.1552 111.29C63.7847 111.006 63.4738 110.652 63.2402 110.249C63.0066 109.845 62.8549 109.399 62.7938 108.937C62.7327 108.475 62.7633 108.005 62.8839 107.555C63.0045 107.104 63.2128 106.682 63.4969 106.312C63.7809 105.942 64.1351 105.631 64.5393 105.398C64.9435 105.165 65.3898 105.013 65.8526 104.952C66.3154 104.891 66.7857 104.922 67.2367 105.042C67.6877 105.163 68.1105 105.371 68.481 105.654L73.6624 109.623L85.9065 93.669C86.1904 93.2991 86.5445 92.9887 86.9485 92.7555C87.3525 92.5223 87.7986 92.3709 88.2612 92.3099C88.7238 92.2488 89.194 92.2794 89.6448 92.3998C90.0956 92.5203 90.5182 92.7282 90.8885 93.0118L90.8896 93.0125L90.8136 93.1179L90.8916 93.0125C91.6388 93.586 92.1276 94.4322 92.2508 95.3652C92.3741 96.2983 92.1216 97.242 91.5489 97.9894L77.1473 116.746C76.8141 117.178 76.3857 117.528 75.8953 117.768C75.405 118.008 74.8658 118.132 74.3197 118.131L74.3166 118.135Z" fill="white"/>
<path d="M237.389 99.5997L206.145 138.77L196.621 134.403L233.345 77.2998L237.389 99.5997Z" fill="#3F3D56"/>
<path d="M312.149 38.9029C312.351 37.473 312.02 36.0189 311.22 34.8161C310.42 33.6133 309.206 32.7455 307.808 32.377C306.41 32.0084 304.925 32.1649 303.635 32.8167C302.345 33.4684 301.339 34.5702 300.808 35.9133L288.346 50.1823L292.002 60.3823L304.535 43.7095C305.353 43.9712 306.218 44.0505 307.07 43.942C307.922 43.8335 308.74 43.5398 309.466 43.0816C310.192 42.6233 310.808 42.0116 311.272 41.2897C311.735 40.5677 312.035 39.753 312.149 38.9029Z" fill="#FFB7B7"/>
<path d="M260.492 94.4234L301.86 50.3296L296.28 41.4697L244.394 85.2958L260.492 94.4234Z" fill="#3F3D56"/>
<path d="M251.259 67.633C259.273 67.633 265.77 61.1443 265.77 53.1402C265.77 45.1361 259.273 38.6475 251.259 38.6475C243.245 38.6475 236.748 45.1361 236.748 53.1402C236.748 61.1443 243.245 67.633 251.259 67.633Z" fill="#2F2E41"/>
<path d="M252.426 44.9533C255.548 41.7908 259.327 39.3504 263.496 37.8038C266.172 36.8137 269.084 36.202 271.882 36.7643C274.679 37.3266 277.325 39.2595 278.105 42.0009C278.744 44.2426 278.085 46.6562 277.094 48.7664C276.104 50.8766 274.781 52.8335 273.981 55.0224C273.163 57.2559 272.918 59.6579 273.266 62.0103C273.614 64.3628 274.544 66.5912 275.973 68.4932C277.402 70.3953 279.284 71.9107 281.449 72.9021C283.613 73.8934 285.991 74.3292 288.366 74.1699C285.617 74.538 283.084 75.8281 280.397 76.5148C277.71 77.2015 274.539 77.155 272.542 75.2325C270.43 73.1985 270.388 69.8915 270.49 66.9626C270.642 62.6088 270.793 58.2549 270.945 53.901C271.023 51.6806 271.089 49.3891 270.287 47.3167C269.485 45.2443 267.58 43.4295 265.355 43.4484C263.67 43.4627 262.177 44.4827 260.825 45.4886C259.473 46.4946 258.042 47.5679 256.363 47.7175C254.684 47.8671 252.766 46.6259 252.892 44.9468L252.426 44.9533Z" fill="#2F2E41"/>
<path d="M264.66 133.752C264.66 133.752 246.586 73.7976 240.778 72.9874C234.969 72.1772 225.611 88.3711 225.611 88.3711C213.477 103.833 200.965 153.919 200.965 153.919C200.965 153.919 221.823 155.223 237.07 163.325C252.317 171.427 270.311 162.914 270.311 162.914L264.66 133.752Z" fill="#3F3D56"/>
<path opacity="0.1" d="M264.66 133.752C264.66 133.752 246.586 73.7973 240.778 72.9871C234.969 72.1769 227.988 88.5351 227.988 88.5351C221.942 113.495 200.965 153.919 200.965 153.919C200.965 153.919 221.823 155.222 237.07 163.324C252.317 171.426 270.311 162.914 270.311 162.914L264.66 133.752Z" fill="black"/>
<path d="M249.832 115.814V145.941L253.382 189.582L271.117 222.593L262.653 228.632L238.468 197.231L228.902 166.052L213.88 235.073L202.594 234.268L210.432 138.571L225.306 111.635L249.832 115.814Z" fill="#2F2E41"/>
<path d="M231.609 86.6749C225.966 92.311 231.206 98.3496 231.206 98.3496L224.756 112.842L250.15 119.686L259.025 80.0814L252.978 73.6402C240.886 73.2376 240.88 72.9873 240.88 72.9873C238.761 75.0581 231.609 86.6749 231.609 86.6749Z" fill="#335EF7"/>
<path d="M260.047 75.9776C258.894 75.1273 257.583 74.5141 256.191 74.1733C254.799 73.8325 253.352 73.7711 251.936 73.9925C250.52 74.2139 249.162 74.7138 247.94 75.4631C246.719 76.2125 245.658 77.1965 244.82 78.3581C238.436 87.2358 232.533 101.571 240.666 119.45C253.726 148.157 265.09 162.853 269.71 162.852C269.912 162.853 270.113 162.822 270.304 162.759C273.148 161.795 277.26 156.989 278.004 152.754C278.271 151.238 278.207 149.126 276.392 147.676C271.178 143.511 261.818 130.542 258.898 113.472C257.284 104.039 260.413 95.4475 263.323 89.9009C264.551 87.6059 264.911 84.9454 264.335 82.4071C263.759 79.8688 262.287 77.6228 260.188 76.0808L260.047 75.9776Z" fill="#3F3D56"/>
<path d="M252.006 66.2093C257.182 63.3831 259.084 56.901 256.255 51.7311C253.425 46.5612 246.935 44.6612 241.758 47.4873C236.582 50.3135 234.68 56.7955 237.509 61.9655C240.339 67.1354 246.829 69.0354 252.006 66.2093Z" fill="#FFB7B7"/>
<path d="M231.86 56.0412H247.284L247.442 53.8295L248.233 56.0412H250.608L250.921 51.6577L252.489 56.0412H257.084V55.824C257.081 52.7723 255.865 49.8465 253.705 47.6886C251.544 45.5307 248.615 44.3169 245.559 44.3135H243.385C240.329 44.3169 237.4 45.5307 235.239 47.6886C233.079 49.8465 231.863 52.7723 231.86 55.824V56.0412Z" fill="#2F2E41"/>
<path d="M254.754 63.9911L261.336 61.858V45.8936H248.903L249.211 46.2005C253.494 50.4722 258.257 65.6276 254.754 63.9911Z" fill="#2F2E41"/>
<path d="M212.134 15.7854C216.126 15.7854 219.362 12.5529 219.362 8.56553C219.362 4.57813 216.126 1.3457 212.134 1.3457C208.141 1.3457 204.905 4.57813 204.905 8.56553C204.905 12.5529 208.141 15.7854 212.134 15.7854Z" fill="#F1F1F1"/>
</g>
<defs>
<clipPath id="clip0_1_38485">
<rect width="329" height="250" fill="white" transform="translate(0.5)"/>
</clipPath>
</defs>
</svg>
