<svg width="186" height="180" viewBox="0 0 186 180" fill="none" xmlns="http://www.w3.org/2000/svg">
<circle cx="95.5" cy="90.5" r="70.5" fill="url(#paint0_linear_137_6696)"/>
<circle cx="178.466" cy="27.5" r="7.5" fill="#859EFA"/>
<circle cx="20.0332" cy="10" r="10" fill="#859EFA"/>
<circle cx="10.0332" cy="133" r="5" fill="#859EFA"/>
<circle cx="165.533" cy="160.5" r="2.5" fill="#859EFA"/>
<path fill-rule="evenodd" clip-rule="evenodd" d="M94.8314 114.871C95.1036 115.014 95.4081 115.086 95.7125 115.084C96.0169 115.081 96.3188 115.006 96.5935 114.862L105.365 110.173C107.852 108.847 109.8 107.365 111.319 105.639C114.623 101.878 116.427 97.0784 116.395 92.1293L116.291 75.8044C116.281 73.9241 115.046 72.2462 113.22 71.6363L96.9029 66.1618C95.9204 65.8291 94.8438 65.8363 93.8786 66.1786L77.6234 71.8485C75.8069 72.4825 74.5942 74.1724 74.6041 76.0551L74.708 92.368C74.7402 97.3243 76.6063 102.102 79.9647 105.824C81.4991 107.526 83.4642 108.987 85.9787 110.291L94.8314 114.871ZM92.5095 95.6848C92.8758 96.0367 93.351 96.2103 93.8261 96.2055C94.3013 96.2031 94.774 96.0247 95.1354 95.6679L104.721 86.2181C105.441 85.507 105.433 84.3644 104.706 83.6629C103.976 82.9614 102.8 82.9662 102.08 83.6773L93.7989 91.8398L90.4083 88.5806C89.6782 87.8791 88.5051 87.8863 87.7824 88.5975C87.0622 89.3086 87.0697 90.4513 87.7998 91.1528L92.5095 95.6848Z" fill="white"/>
<circle cx="106.533" cy="4.5" r="2.5" fill="#859EFA"/>
<circle cx="62.5332" cy="176.5" r="3.5" fill="#859EFA"/>
<circle cx="122.033" cy="171" r="1" fill="#859EFA"/>
<circle cx="170.533" cy="110.5" r="2.5" fill="#859EFA"/>
<circle cx="1.0332" cy="75" r="1" fill="#859EFA"/>
<defs>
<linearGradient id="paint0_linear_137_6696" x1="166" y1="161" x2="-1.77734" y2="112.355" gradientUnits="userSpaceOnUse">
<stop stop-color="#335EF7"/>
<stop offset="1" stop-color="#5F82FF"/>
</linearGradient>
</defs>
</svg>
