<svg width="276" height="251" viewBox="0 0 276 251" fill="none" xmlns="http://www.w3.org/2000/svg">
<g clip-path="url(#clip0_1_38552)">
<path d="M190.727 249.703H112.413C100.667 249.703 91.1106 240.157 91.1106 228.423V21.6131C91.1106 9.8793 100.667 0.333008 112.413 0.333008H190.727C202.473 0.333008 212.029 9.8793 212.029 21.6131C213.487 104.662 215.973 197.663 212.029 228.423C212.029 240.157 202.473 249.703 190.727 249.703L190.727 249.703Z" fill="#3F3D56"/>
<path d="M213.121 76.4043C212.624 76.4043 212.22 76.808 212.22 77.3046V106.113C212.22 106.609 212.624 107.013 213.121 107.013C213.618 107.013 214.022 106.609 214.022 106.113V77.3046C214.022 76.808 213.618 76.4043 213.121 76.4043Z" fill="#3F3D56"/>
<path d="M210.002 21.6129V228.419C210.002 238.632 202.044 246.987 191.982 247.635H191.978C191.829 247.644 191.68 247.653 191.527 247.657C191.261 247.671 190.995 247.675 190.725 247.675C190.725 247.675 189.734 247.603 187.922 247.468C186.093 247.333 183.43 247.131 180.109 246.865C179.113 246.789 178.063 246.703 176.955 246.613C174.747 246.433 172.323 246.235 169.723 246.01C168.686 245.924 167.614 245.83 166.519 245.735C160.923 245.254 154.655 244.691 148.044 244.052C146.927 243.948 145.8 243.84 144.665 243.728C144.368 243.696 93.1384 230.832 93.1384 228.419V21.6129C93.1384 10.9764 101.767 2.35645 112.415 2.35645H123.923C125.762 2.35645 127.24 3.78784 127.397 5.61986C127.411 5.74141 127.424 5.86292 127.447 5.98447C127.78 7.8255 129.47 9.10835 131.345 9.10835H171.795C173.67 9.10835 175.36 7.8255 175.693 5.98447C175.716 5.86293 175.729 5.74141 175.743 5.61986C175.9 3.78785 177.378 2.35645 179.217 2.35645H190.725C201.373 2.35645 210.002 10.9764 210.002 21.6129H210.002Z" fill="white"/>
<path d="M90.66 54.7988C90.163 54.7988 89.7588 55.2026 89.7588 55.6991V62.9011C89.7588 63.3976 90.163 63.8014 90.66 63.8014C91.157 63.8014 91.5612 63.3976 91.5612 62.9011V55.6991C91.5612 55.2026 91.157 54.7988 90.66 54.7988Z" fill="#3F3D56"/>
<path d="M90.66 76.4043C90.163 76.4043 89.7588 76.8081 89.7588 77.3046V91.2585C89.7588 91.755 90.163 92.1587 90.66 92.1587C91.157 92.1587 91.5612 91.755 91.5612 91.2585V77.3046C91.5612 76.808 91.157 76.4043 90.66 76.4043V76.4043Z" fill="#3F3D56"/>
<path d="M90.66 96.21C90.163 96.21 89.7588 96.6137 89.7588 97.1102V111.064C89.7588 111.561 90.163 111.964 90.66 111.964C91.157 111.964 91.5612 111.561 91.5612 111.064V97.1102C91.5612 96.6137 91.157 96.21 90.66 96.21Z" fill="#3F3D56"/>
<path d="M123.627 5.50977H106.357C106.273 5.50977 106.206 5.57754 106.206 5.66115V7.60902C106.206 7.69262 106.273 7.7604 106.357 7.7604H123.627C123.711 7.7604 123.779 7.69262 123.779 7.60902V5.66115C123.779 5.57754 123.711 5.50977 123.627 5.50977Z" fill="#E6E6E6"/>
<path d="M182.064 7.76019C183.06 7.76019 183.867 6.95408 183.867 5.95969C183.867 4.96529 183.06 4.15918 182.064 4.15918C181.069 4.15918 180.262 4.96529 180.262 5.95969C180.262 6.95408 181.069 7.76019 182.064 7.76019Z" fill="#E6E6E6"/>
<path d="M187.021 7.76019C188.016 7.76019 188.823 6.95408 188.823 5.95969C188.823 4.96529 188.016 4.15918 187.021 4.15918C186.025 4.15918 185.219 4.96529 185.219 5.95969C185.219 6.95408 186.025 7.76019 187.021 7.76019Z" fill="#E6E6E6"/>
<path d="M191.977 7.76019C192.973 7.76019 193.78 6.95408 193.78 5.95969C193.78 4.96529 192.973 4.15918 191.977 4.15918C190.982 4.15918 190.175 4.96529 190.175 5.95969C190.175 6.95408 190.982 7.76019 191.977 7.76019Z" fill="#E6E6E6"/>
<path d="M6.99268 249.753C6.99268 250.075 7.2516 250.333 7.57403 250.333H275.419C275.741 250.333 276 250.075 276 249.753C276 249.431 275.741 249.172 275.419 249.172H7.57403C7.2516 249.172 6.99268 249.431 6.99268 249.753Z" fill="#CCCCCC"/>
<path d="M92.3934 245.938L86.9007 245.938L84.2878 224.773L92.3945 224.774L92.3934 245.938Z" fill="#FFB6B6"/>
<path d="M73.5747 245.814C73.4037 246.101 73.3135 247.03 73.3135 247.365C73.3135 248.393 74.1481 249.227 75.1777 249.227H92.1879C92.8902 249.227 93.4597 248.658 93.4597 247.956V247.249C93.4597 247.249 94.3011 245.123 92.5687 242.502C92.5687 242.502 90.4155 244.554 87.198 241.34L86.2492 239.623L79.3813 244.641L75.5745 245.109C74.7416 245.211 74.0032 245.093 73.5748 245.814H73.5747V245.814H73.5747Z" fill="#2F2E41"/>
<path d="M62.018 216.542L56.5254 216.524L53.9797 195.352L62.0864 195.378L62.018 216.542Z" fill="#FFB6B6"/>
<path d="M43.2 216.357C43.0281 216.645 42.9349 217.573 42.9338 217.908C42.9306 218.936 43.7625 219.773 44.7922 219.776L61.8022 219.83C62.5046 219.832 63.0758 219.265 63.078 218.563L63.0803 217.856C63.0803 217.856 63.9285 215.732 62.2044 213.106C62.2044 213.106 60.0447 215.151 56.8375 211.927L55.8942 210.207L49.0103 215.203L45.202 215.659C44.3688 215.759 43.6308 215.638 43.2001 216.357H43.2V216.357Z" fill="#2F2E41"/>
<path d="M84.3825 117.453L77.5433 117.941C77.5433 117.941 54.3902 131.091 52.4362 134.019C50.4821 136.947 47.7953 141.095 50.2379 145.487C52.6804 149.879 50.8214 203.058 50.8214 203.058L62.4933 200.42L69.9715 144.781L85.6038 142.585C85.6038 142.585 90.9774 154.166 89.0233 163.748C87.0693 173.329 86.0923 179.185 86.0923 179.185L83.6497 235.793L93.1756 235.549L101.725 183.089L116.38 141.609L97.328 119.161L84.3825 117.453Z" fill="#2F2E41"/>
<path d="M52.8469 112.745C50.0656 114.261 48.594 116.924 49.56 118.692C50.5259 120.46 53.5636 120.664 56.3449 119.148C57.5623 118.484 58.5288 117.601 59.1497 116.669L70.854 110.096L67.6494 104.675L56.4513 111.73C55.3309 111.747 54.0643 112.081 52.8469 112.745H52.8469Z" fill="#FFB6B6"/>
<path d="M118.09 57.4287L103.923 58.8927L102.457 63.7727L88.779 71.0927L93.1756 101.837L89.756 107.205L91.2215 112.573C91.2215 112.573 87.3134 113.061 87.802 115.989L79.0088 117.453C79.0088 117.453 90.6715 119.831 93.1448 131.574C95.6181 143.317 116.135 144.781 116.135 144.781L132.256 94.5166L133.722 64.7487L122.486 61.8207L118.09 57.4287Z" fill="#E6E6E6"/>
<path d="M92.3176 71.3207C92.3176 71.3207 87.7294 69.5756 86.1486 71.6762C84.5678 73.7768 74.125 99.2652 74.125 99.2652L58.8035 107.259L63.112 114.754L82.8416 108.192L95.8587 84.4101L92.3176 71.3207Z" fill="#E6E6E6"/>
<path d="M237 155.027V206.755C237 211.33 233.274 215.051 228.695 215.051H100.706C96.1265 215.051 92.4011 211.33 92.4011 206.755V155.027C92.4011 150.453 96.1265 146.731 100.706 146.731H228.695C233.274 146.731 237 150.453 237 155.027Z" fill="white"/>
<path d="M237 155.027V206.755C237 211.33 233.274 215.051 228.695 215.051H100.706C96.1265 215.051 92.4011 211.33 92.4011 206.755V155.027C92.4011 150.453 96.1265 146.731 100.706 146.731H228.695C233.274 146.731 237 150.453 237 155.027ZM228.695 214.075C232.742 214.075 236.023 210.798 236.023 206.755V180.676C236.023 162.468 221.247 147.707 203.02 147.707H100.706C96.6588 147.707 93.3781 150.985 93.3781 155.027V206.755C93.3781 210.798 96.6588 214.075 100.706 214.075H228.695Z" fill="#3F3D56"/>
<path d="M149.855 177.983H133.138C132.716 177.983 132.374 178.326 132.374 178.747C132.374 179.168 132.716 179.51 133.138 179.51H149.855C150.276 179.51 150.619 179.168 150.619 178.747C150.619 178.326 150.276 177.983 149.855 177.983Z" fill="#335EF7"/>
<path d="M175.258 177.983H158.54C158.119 177.983 157.776 178.326 157.776 178.747C157.776 179.168 158.119 179.51 158.54 179.51H175.258C175.679 179.51 176.022 179.168 176.022 178.747C176.022 178.326 175.679 177.983 175.258 177.983Z" fill="#335EF7"/>
<path d="M149.855 186.331H133.138C132.716 186.331 132.374 186.673 132.374 187.094C132.374 187.515 132.716 187.858 133.138 187.858H149.855C150.276 187.858 150.619 187.515 150.619 187.094C150.619 186.673 150.276 186.331 149.855 186.331Z" fill="#335EF7"/>
<path d="M175.258 186.331H158.54C158.119 186.331 157.776 186.673 157.776 187.094C157.776 187.515 158.119 187.858 158.54 187.858H175.258C175.679 187.858 176.022 187.515 176.022 187.094C176.022 186.673 175.679 186.331 175.258 186.331Z" fill="#335EF7"/>
<path d="M201.424 187.094C201.424 186.673 201.081 186.331 200.66 186.331H183.943C183.521 186.331 183.178 186.673 183.178 187.094C183.178 187.515 183.521 187.858 183.943 187.858H200.66C201.081 187.858 201.424 187.515 201.424 187.094Z" fill="#335EF7"/>
<path d="M140.085 171.318C140.506 171.318 140.849 170.975 140.849 170.554C140.849 170.133 140.506 169.791 140.085 169.791H123.368C122.946 169.791 122.603 170.133 122.603 170.554C122.603 170.975 122.946 171.318 123.368 171.318H140.085Z" fill="#335EF7"/>
<path d="M189.316 171.007H206.033C206.455 171.007 206.798 170.665 206.798 170.244C206.798 169.823 206.455 169.48 206.033 169.48H189.316C188.895 169.48 188.552 169.823 188.552 170.244C188.552 170.665 188.895 171.007 189.316 171.007Z" fill="#335EF7"/>
<path d="M147.127 171.168H181.785C182.207 171.168 182.55 170.825 182.55 170.404C182.55 169.983 182.207 169.641 181.785 169.641H147.127C146.706 169.641 146.363 169.983 146.363 170.404C146.363 170.825 146.706 171.168 147.127 171.168Z" fill="#335EF7"/>
<path d="M160.763 193.916H144.046C143.625 193.916 143.282 194.258 143.282 194.679C143.282 195.1 143.625 195.443 144.046 195.443H160.763C161.185 195.443 161.528 195.1 161.528 194.679C161.528 194.258 161.185 193.916 160.763 193.916Z" fill="#335EF7"/>
<path d="M214.754 154.638V206.366C214.754 210.94 211.029 214.662 206.449 214.662H154.667C150.088 214.662 146.363 210.94 146.363 206.366V154.638C146.363 150.063 150.088 146.342 154.667 146.342H206.449C211.029 146.342 214.754 150.063 214.754 154.638Z" fill="white"/>
<path d="M214.754 154.638V206.366C214.754 210.94 211.029 214.662 206.449 214.662H154.667C150.088 214.662 146.363 210.94 146.363 206.366V154.638C146.363 150.063 150.088 146.342 154.667 146.342H206.449C211.029 146.342 214.754 150.063 214.754 154.638ZM203.237 213.686C209.058 213.686 213.777 208.972 213.777 203.157V180.287C213.777 162.078 199.001 147.318 180.774 147.318H154.667C150.621 147.318 147.34 150.595 147.34 154.638V199.148C147.34 207.177 153.855 213.686 161.892 213.686H203.237V213.686H203.237Z" fill="#3F3D56"/>
<path d="M187.451 167.468H170.734C170.313 167.468 169.97 167.126 169.97 166.705C169.97 166.284 170.313 165.941 170.734 165.941H187.451C187.873 165.941 188.216 166.284 188.216 166.705C188.216 167.126 187.873 167.468 187.451 167.468V167.468Z" fill="#335EF7"/>
<path d="M187.451 183.75H170.734C170.313 183.75 169.97 183.407 169.97 182.986C169.97 182.565 170.313 182.223 170.734 182.223H187.451C187.873 182.223 188.216 182.565 188.216 182.986C188.216 183.407 187.873 183.75 187.451 183.75V183.75Z" fill="#335EF7"/>
<path d="M179.147 206.198H162.43C162.008 206.198 161.666 205.855 161.666 205.434C161.666 205.013 162.008 204.671 162.43 204.671H179.147C179.568 204.671 179.911 205.013 179.911 205.434C179.911 205.855 179.568 206.198 179.147 206.198V206.198Z" fill="#335EF7"/>
<path d="M196.422 175.614H161.764C161.342 175.614 161 175.271 161 174.85C161 174.429 161.342 174.087 161.764 174.087H196.422C196.844 174.087 197.186 174.429 197.186 174.85C197.186 175.271 196.844 175.614 196.422 175.614V175.614Z" fill="#335EF7"/>
<path d="M205.011 125.974C205.011 109.837 191.358 100.96 175.762 96.7558C155.767 91.3653 141.123 102.273 146.513 125.974C147.735 131.345 150.657 137.619 154.274 142.986H182.976C192.563 136.75 205.011 138.499 205.011 125.974H205.011Z" fill="#335EF7"/>
<path d="M175.333 156.479C176.966 153.37 179.035 151.126 181.316 149.419H154.433C161.352 159.292 170.528 165.629 175.333 156.479Z" fill="#335EF7"/>
<path d="M172.231 108.699C173.957 108.699 175.356 110.097 175.356 111.821V118.064H169.106V111.821C169.106 110.097 170.505 108.699 172.231 108.699ZM176.918 118.064V111.821C176.918 109.235 174.819 107.139 172.231 107.139C169.642 107.139 167.543 109.235 167.543 111.821V118.064C165.818 118.064 164.418 119.462 164.418 121.186V128.99C164.418 130.714 165.818 132.112 167.543 132.112H176.918C178.644 132.112 180.043 130.714 180.043 128.99V121.186C180.043 119.462 178.644 118.064 176.918 118.064H176.918ZM167.543 119.625H176.918C177.781 119.625 178.48 120.324 178.48 121.186V128.99C178.48 129.852 177.781 130.551 176.918 130.551H167.543C166.68 130.551 165.981 129.852 165.981 128.99V121.186C165.981 120.324 166.68 119.625 167.543 119.625Z" fill="white"/>
<path d="M127.574 145.046C127.198 148.189 128.515 150.93 130.517 151.17C132.519 151.409 134.447 149.056 134.824 145.913C134.989 144.537 134.829 143.239 134.43 142.193L135.859 128.856L129.58 128.319L128.837 141.524C128.202 142.446 127.739 143.67 127.574 145.046Z" fill="#FFB6B6"/>
<path d="M28.5778 159.099C44.3608 159.099 57.1556 146.317 57.1556 130.551C57.1556 114.784 44.3608 102.003 28.5778 102.003C12.7947 102.003 0 114.784 0 130.551C0 146.317 12.7947 159.099 28.5778 159.099Z" fill="#335EF7"/>
<path d="M28.5777 117.771C30.5965 117.771 32.233 119.406 32.233 121.423V128.726H24.9224V121.423C24.9224 119.406 26.5589 117.771 28.5777 117.771ZM34.0607 128.725V121.423C34.0607 118.398 31.6059 115.945 28.5777 115.945C25.5496 115.945 23.0948 118.398 23.0948 121.423V128.725C21.076 128.725 19.4395 130.36 19.4395 132.377V141.506C19.4395 143.522 21.076 145.157 23.0948 145.157H34.0606C36.0794 145.157 37.7159 143.522 37.7159 141.506V132.377C37.7159 130.36 36.0794 128.725 34.0606 128.725H34.0607ZM23.0948 130.551H34.0606C35.07 130.551 35.8883 131.369 35.8883 132.377V141.506C35.8883 142.514 35.07 143.331 34.0606 143.331H23.0948C22.0854 143.331 21.2671 142.514 21.2671 141.506V132.377C21.2671 131.369 22.0854 130.551 23.0948 130.551Z" fill="white"/>
<path d="M129.081 65.4811C129.081 65.4811 135.92 63.5291 137.386 66.4571C138.851 69.3851 142.271 107.937 142.271 107.937L135.676 138.71L128.104 136.729L132.012 105.497L126.638 82.0731L129.081 65.4811Z" fill="#E6E6E6"/>
<path d="M110.623 55.5771C116.706 55.5771 121.636 50.6516 121.636 44.5757C121.636 38.4997 116.706 33.5742 110.623 33.5742C104.541 33.5742 99.6104 38.4997 99.6104 44.5757C99.6104 50.6516 104.541 55.5771 110.623 55.5771Z" fill="#FFB6B6"/>
<path d="M104.9 54.5005C104.9 54.5005 95.1294 54.0125 96.1065 46.2045C93.6882 37.8899 95.8287 32.4913 103.434 30.5886C103.434 30.5886 105.388 30.1006 105.877 30.1006C112.302 30.1006 115.647 32.0526 115.647 32.0526C115.647 32.0526 115.158 30.1198 115.647 30.5982C116.135 31.0766 116.624 32.0526 116.624 32.0526C116.624 32.0526 121.509 34.4926 121.509 39.3726C121.509 44.2526 121.509 42.3006 121.509 42.3006C121.509 42.3006 120.532 42.3006 119.555 39.3726C118.578 36.4446 112.252 38.3966 112.252 38.3966L112.716 39.3726L111.25 38.8846L109.785 40.3486L108.808 39.8606C108.808 39.8606 104.9 39.8606 105.388 39.8606C105.877 39.8606 105.536 43.177 105.536 43.177L101.969 47.1805L105.877 54.5005H104.9Z" fill="#2F2E41"/>
</g>
<defs>
<clipPath id="clip0_1_38552">
<rect width="276" height="250" fill="white" transform="translate(0 0.333008)"/>
</clipPath>
</defs>
</svg>
