<svg width="186" height="180" viewBox="0 0 186 180" fill="none" xmlns="http://www.w3.org/2000/svg">
<circle cx="95.5" cy="90.5" r="70.5" fill="url(#paint0_linear_137_8765)"/>
<circle cx="178.466" cy="27.5" r="7.5" fill="#859EFA"/>
<circle cx="20.0332" cy="10" r="10" fill="#859EFA"/>
<circle cx="10.0332" cy="133" r="5" fill="#859EFA"/>
<circle cx="165.533" cy="160.5" r="2.5" fill="#859EFA"/>
<path fill-rule="evenodd" clip-rule="evenodd" d="M108.515 78.9237C108.515 86.1439 102.725 91.9333 95.5002 91.9333C88.2773 91.9333 82.4858 86.1439 82.4858 78.9237C82.4858 71.7035 88.2773 65.9165 95.5002 65.9165C102.725 65.9165 108.515 71.7035 108.515 78.9237ZM95.5002 115.083C84.8368 115.083 75.8335 113.35 75.8335 106.663C75.8335 99.9741 84.8934 98.3024 95.5002 98.3024C106.166 98.3024 115.167 100.036 115.167 106.722C115.167 113.411 106.107 115.083 95.5002 115.083Z" fill="white"/>
<circle cx="106.533" cy="4.5" r="2.5" fill="#859EFA"/>
<circle cx="62.5332" cy="176.5" r="3.5" fill="#859EFA"/>
<circle cx="122.033" cy="171" r="1" fill="#859EFA"/>
<circle cx="170.533" cy="110.5" r="2.5" fill="#859EFA"/>
<circle cx="1.0332" cy="75" r="1" fill="#859EFA"/>
<defs>
<linearGradient id="paint0_linear_137_8765" x1="166" y1="161" x2="-1.77734" y2="112.355" gradientUnits="userSpaceOnUse">
<stop stop-color="#335EF7"/>
<stop offset="1" stop-color="#5F82FF"/>
</linearGradient>
</defs>
</svg>
